<svg width="933" height="933" viewBox="0 0 933 933" fill="none" xmlns="http://www.w3.org/2000/svg">
<path d="M932.5 466.5C932.5 723.865 723.865 932.5 466.5 932.5C209.135 932.5 0.5 723.865 0.5 466.5C0.5 209.135 209.135 0.5 466.5 0.5C723.865 0.5 932.5 209.135 932.5 466.5Z" fill="#48C16B" stroke="black"/>
<path d="M190.24 443.544H220.768C225.824 443.544 229.76 444.984 232.576 447.864C235.456 450.744 236.896 454.744 236.896 459.864V495H190.24V443.544ZM223.744 483V461.688C223.744 459.768 223.232 458.264 222.208 457.176C221.184 456.088 219.776 455.544 217.984 455.544H203.392V483H223.744ZM254.788 455.544H245.38V443.544H267.94V494.616L254.788 495.48V455.544ZM290.19 497.88C287.886 494.936 285.422 491.352 282.798 487.128C284.91 485.08 287.31 482.84 289.998 480.408C293.518 477.144 296.078 474.68 297.678 473.016C299.342 471.288 300.622 469.56 301.518 467.832C302.414 466.104 302.862 464.216 302.862 462.168V455.544H278.382V430.104H291.534V443.544H316.014V460.248C316.014 464.92 315.182 469.048 313.518 472.632C311.854 476.152 309.582 479.416 306.702 482.424C303.886 485.432 299.566 489.528 293.742 494.712L290.19 497.88ZM325.197 483H338.253C343.053 483 346.509 481.848 348.621 479.544C350.797 477.176 351.885 473.4 351.885 468.216C351.885 463.928 351.053 460.76 349.389 458.712C347.725 456.6 345.197 455.544 341.805 455.544H326.253V443.544H342.093C349.965 443.544 355.757 445.528 359.469 449.496C363.245 453.4 365.133 459.48 365.133 467.736C365.133 477.272 362.861 484.216 358.317 488.568C353.773 492.856 346.445 495 336.333 495H324.333L325.197 483ZM400.663 455.544H391.255V443.544H413.815V494.616L400.663 495.48V455.544ZM423.235 483H437.827V455.544H426.787V443.544H450.979V495H423.235V483ZM481.188 471.384C479.588 472.28 478.404 473.4 477.636 474.744C476.868 476.024 476.356 477.816 476.1 480.12C475.972 481.208 475.812 483.192 475.62 486.072C475.492 488.888 475.396 491.032 475.332 492.504L475.236 495.192C471.908 495.384 468.516 495.48 465.06 495.48H461.7C461.764 489.976 461.956 485.272 462.276 481.368C462.596 477.272 463.492 473.88 464.964 471.192C466.5 468.44 468.836 466.2 471.972 464.472C467.812 458.712 464.292 453.208 461.412 447.96C464.932 445.784 468.996 443.608 473.604 441.432C479.108 450.584 483.844 457.912 487.812 463.416C489.86 462.904 491.332 462.2 492.228 461.304C493.188 460.408 493.796 459.032 494.052 457.176C494.372 455.128 494.788 450.52 495.3 443.352C498.18 443.16 500.996 443.064 503.748 443.064L509.22 443.16L508.356 454.68C508.036 458.968 506.916 462.36 504.996 464.856C503.076 467.352 500.196 469.304 496.356 470.712L509.316 491.16C504.452 493.72 500.324 495.608 496.932 496.824L481.188 471.384ZM518.499 482.712H525.219L542.019 483.768L541.923 482.808L531.747 471.864C526.371 464.888 521.219 456.888 516.291 447.864C519.619 445.816 523.779 443.896 528.771 442.104C532.291 448.568 536.643 455.672 541.827 463.416C543.043 462.904 543.939 462.264 544.515 461.496C545.091 460.664 545.475 459.608 545.667 458.328C545.923 456.984 546.179 454.872 546.435 451.992C546.691 449.112 546.883 446.36 547.011 443.736C550.915 443.48 555.299 443.352 560.163 443.352C560.099 445.72 559.843 449.592 559.395 454.968C558.947 459 557.891 462.264 556.227 464.76C554.627 467.256 551.715 469.272 547.491 470.808L557.475 483.864V495H518.499V482.712ZM578.161 455.64L568.657 453.624L571.153 442.104L578.833 443.544H600.625C606.705 443.544 611.409 445.208 614.737 448.536C618.129 451.864 619.825 456.536 619.825 462.552V495H593.713V483H606.673V463.704C606.673 461.08 605.937 459.032 604.465 457.56C603.057 456.088 601.073 455.352 598.513 455.352H591.601L583.249 495.288H569.521L578.161 455.64ZM668.594 471.384C666.994 472.28 665.81 473.4 665.042 474.744C664.274 476.024 663.762 477.816 663.506 480.12C663.378 481.208 663.218 483.192 663.026 486.072C662.898 488.888 662.802 491.032 662.738 492.504L662.642 495.192C659.314 495.384 655.922 495.48 652.466 495.48H649.106C649.17 489.976 649.362 485.272 649.682 481.368C650.002 477.272 650.898 473.88 652.37 471.192C653.906 468.44 656.242 466.2 659.378 464.472C655.218 458.712 651.698 453.208 648.818 447.96C652.338 445.784 656.402 443.608 661.01 441.432C666.514 450.584 671.25 457.912 675.218 463.416C677.266 462.904 678.738 462.2 679.634 461.304C680.594 460.408 681.202 459.032 681.458 457.176C681.778 455.128 682.194 450.52 682.706 443.352C685.586 443.16 688.402 443.064 691.154 443.064L696.626 443.16L695.762 454.68C695.442 458.968 694.322 462.36 692.402 464.856C690.482 467.352 687.602 469.304 683.762 470.712L696.722 491.16C691.858 493.72 687.73 495.608 684.338 496.824L668.594 471.384ZM717.972 497.88C715.668 494.936 713.204 491.352 710.58 487.128C712.692 485.08 715.092 482.84 717.78 480.408C721.3 477.144 723.86 474.68 725.46 473.016C727.124 471.288 728.404 469.56 729.3 467.832C730.196 466.104 730.644 464.216 730.644 462.168V455.544H706.164V430.104H719.316V443.544H743.796V460.248C743.796 464.92 742.964 469.048 741.3 472.632C739.636 476.152 737.364 479.416 734.484 482.424C731.668 485.432 727.348 489.528 721.524 494.712L717.972 497.88Z" fill="#22181C"/>
<circle cx="583" cy="818" r="63" fill="#EE5967"/>
<circle cx="701" cy="747" r="42" fill="#EE5967"/>
<circle cx="388" cy="93" r="42" fill="#EE5967"/>
<circle cx="292" cy="611" r="42" fill="#EE5967"/>
<circle cx="645.5" cy="234.5" r="70.5" fill="#EE5967"/>
</svg>
