<svg width="261" height="261" viewBox="0 0 261 261" fill="none" xmlns="http://www.w3.org/2000/svg">
<g id="logo 1" clip-path="url(#clip0_1_2)">
<g id="layer1">
<path id="path432" d="M260.414 122.379C262.52 156.836 250.869 190.72 228.018 216.596C205.167 242.472 172.984 258.225 138.531 260.398C104.078 262.571 70.1709 250.986 44.2505 228.186C18.3301 205.385 2.51448 173.233 0.274661 138.784C-1.96515 104.336 9.55385 70.4058 32.3036 44.4411C55.0533 18.4764 87.1751 2.59818 121.619 0.291316C156.063 -2.01554 190.016 9.43738 216.025 32.1365C242.034 54.8357 257.974 86.9265 260.348 121.366" fill="#46C36C"/>
<g id="g6030">
<g id="g3753">
<path id="text3693" d="M64.9638 62.9367L126.761 63.5618C137.293 63.6684 145.463 66.7512 151.268 72.8102C157.207 78.8706 160.123 87.2339 160.015 97.9L159.283 170.296L131.866 171.819L132.578 101.423C132.618 97.4228 131.583 94.2789 129.473 91.9907C127.363 89.7026 124.441 88.5397 120.708 88.5019L92.1095 88.2126L91.286 169.608L63.8692 171.131L64.9638 62.9367Z" fill="#F6E8EA"/>
<path id="text3693-1" d="M192.069 206.771L130.272 206.146C119.739 206.039 111.57 202.956 105.764 196.897C99.8254 190.837 96.9099 182.474 97.0178 171.808L97.7502 99.4114L125.167 97.8886L124.455 168.285C124.414 172.285 125.449 175.429 127.56 177.717C129.67 180.005 132.592 181.168 136.325 181.206L164.923 181.495L165.747 100.099L193.164 98.5765L192.069 206.771Z" fill="#F6E8EA"/>
</g>
<path id="path5019" d="M91.651 176.451L77.0222 207L62.7258 178.051L91.651 176.451Z" fill="#F45B69"/>
<path id="path5019-8" d="M165.005 85.9522L179.634 55.403L193.93 84.3523L165.005 85.9522Z" fill="#22181C" fill-opacity="0.870588"/>
</g>
</g>
</g>
<defs>
<clipPath id="clip0_1_2">
<rect width="260.657" height="260.657" fill="white"/>
</clipPath>
</defs>
</svg>
